<svg width="785" height="678" viewBox="0 0 785 678" fill="none" xmlns="http://www.w3.org/2000/svg">
<path d="M318.5 552.716C318.5 605.46 269.723 677.5 171 677.5C160.349 677.5 152.719 672.553 147.673 664.417C142.61 656.254 140.144 644.866 139.927 632.033C139.493 606.369 148.055 575.146 162.42 552.988C183.933 519.802 198.725 496.187 209.144 479.553C210.713 477.048 212.183 474.702 213.561 472.505C218.829 464.11 222.763 457.903 225.813 453.384C228.87 448.856 231.016 446.058 232.711 444.452C234.393 442.859 235.542 442.521 236.636 442.725C237.214 442.832 237.818 443.098 238.52 443.498C239.057 443.804 239.625 444.173 240.265 444.588C240.467 444.719 240.675 444.855 240.893 444.994C244.527 447.331 250.039 450.5 261 450.5C282.432 450.5 296.784 462.76 305.807 481.691C314.841 500.645 318.5 526.239 318.5 552.716Z" fill="#5D5D5D" stroke="black"/>
<path d="M481.533 515C481.533 567.738 433.729 637.5 335 637.5C329.646 637.5 325.525 636.42 322.389 634.465C319.257 632.513 317.067 629.664 315.617 626.051C312.702 618.791 312.792 608.5 314.255 596.442C315.298 587.846 317.03 578.412 318.829 568.611C319.551 564.681 320.283 560.691 320.987 556.672C323.44 542.652 325.533 528.301 325.533 515C325.533 473.552 334.312 449.721 348.372 436.236C362.431 422.751 381.886 419.5 403.533 419.5C446.522 419.5 481.533 462.158 481.533 515Z" fill="#5D5D5D" stroke="black"/>
<path d="M645.282 457C645.282 510.019 621 601 522 601C478.646 601 488.282 510.019 488.282 457C488.282 374 523.427 361 566.782 361C610.136 361 645.282 403.981 645.282 457Z" fill="#5D5D5D"/>
<path d="M777.782 499C777.782 525.516 776.705 560.409 763.314 588.668C756.624 602.785 746.866 615.234 732.638 624.157C718.409 633.081 699.676 638.5 675 638.5C664.355 638.5 655.711 633.17 648.709 624.272C641.699 615.362 636.361 602.904 632.364 588.746C624.371 560.437 621.782 525.488 621.782 499C621.782 457.552 630.56 433.721 644.62 420.236C658.679 406.751 678.134 403.5 699.782 403.5C742.77 403.5 777.782 446.158 777.782 499Z" fill="#5D5D5D" stroke="black"/>
<path d="M232 10H288H331L375 40L436 142L496 316L77 436L32 383L71 352L190 50L232 10Z" fill="#6E6E6E"/>
<path d="M785 428C785 490.684 457.57 575 338 575C218.43 575 184 478.184 184 415.5C184 397 295.43 228 415 228C516 181 785 365.316 785 428Z" fill="#6E6E6E"/>
<path d="M289.5 157.5C289.5 178.703 277.746 197.941 258.658 211.897C239.57 225.853 213.176 234.5 184 234.5C176.804 234.5 168.528 231.698 159.53 226.652C150.539 221.61 140.865 214.35 130.884 205.489C110.923 187.768 89.7743 163.683 70.4448 138.248C51.1165 112.815 33.6188 86.0485 20.9558 62.9729C14.6241 51.4347 9.50535 40.8268 5.97086 31.775C2.43091 22.7092 0.5 15.253 0.5 10C0.5 7.38016 0.980772 5.41361 1.84973 3.99355C2.71094 2.58615 3.97793 1.67484 5.64235 1.19974C9.02213 0.235001 14.0177 1.07555 20.3484 3.35094C32.9705 7.88762 50.4371 17.9463 69.7924 29.3798C71.8298 30.5834 73.8879 31.802 75.963 33.0307C93.5789 43.4612 112.425 54.6201 130.331 63.4917C150.327 73.3994 169.237 80.5002 184 80.5002C213.176 80.5002 239.57 89.1473 258.658 103.103C277.746 117.059 289.5 136.297 289.5 157.5Z" fill="#6E6E6E" stroke="black"/>
<path d="M192 286.5C192 300.583 177.897 312 160.5 312C143.103 312 129 300.583 129 286.5C129 272.417 143.103 261 160.5 261C177.897 261 192 272.417 192 286.5Z" fill="#CBC3C3"/>
<path d="M191.5 286.5C191.5 300.214 177.725 311.5 160.5 311.5C143.275 311.5 129.5 300.214 129.5 286.5C129.5 272.786 143.275 261.5 160.5 261.5C177.725 261.5 191.5 272.786 191.5 286.5Z" stroke="black" stroke-opacity="0.22"/>
<circle cx="153.5" cy="286.5" r="8.5" fill="#373737"/>
</svg>
